<mxfile host="app.diagrams.net" modified="2023-03-08T10:44:14.042Z" agent="5.0 (Windows NT 10.0; Win64; x64) AppleWebKit/537.36 (KHTML, like Gecko) Chrome/110.0.0.0 Safari/537.36" etag="8UypCyFPjc0qfx5P6skq" version="21.0.2" type="github">
  <diagram id="C5RBs43oDa-KdzZeNtuy" name="Page-1">
    <mxGraphModel dx="1434" dy="796" grid="1" gridSize="10" guides="1" tooltips="1" connect="1" arrows="1" fold="1" page="1" pageScale="1" pageWidth="827" pageHeight="1169" math="0" shadow="0">
      <root>
        <mxCell id="WIyWlLk6GJQsqaUBKTNV-0" />
        <mxCell id="WIyWlLk6GJQsqaUBKTNV-1" parent="WIyWlLk6GJQsqaUBKTNV-0" />
        <mxCell id="zsGPps4aZ2DuJzVvf2Gr-2" style="edgeStyle=orthogonalEdgeStyle;rounded=0;orthogonalLoop=1;jettySize=auto;html=1;entryX=0.5;entryY=0;entryDx=0;entryDy=0;" edge="1" parent="WIyWlLk6GJQsqaUBKTNV-1" source="zsGPps4aZ2DuJzVvf2Gr-0" target="zsGPps4aZ2DuJzVvf2Gr-1">
          <mxGeometry relative="1" as="geometry" />
        </mxCell>
        <mxCell id="zsGPps4aZ2DuJzVvf2Gr-0" value="START" style="ellipse;whiteSpace=wrap;html=1;" vertex="1" parent="WIyWlLk6GJQsqaUBKTNV-1">
          <mxGeometry x="354" y="50" width="120" height="80" as="geometry" />
        </mxCell>
        <mxCell id="zsGPps4aZ2DuJzVvf2Gr-4" style="edgeStyle=orthogonalEdgeStyle;rounded=0;orthogonalLoop=1;jettySize=auto;html=1;entryX=0.5;entryY=0;entryDx=0;entryDy=0;" edge="1" parent="WIyWlLk6GJQsqaUBKTNV-1" source="zsGPps4aZ2DuJzVvf2Gr-1" target="zsGPps4aZ2DuJzVvf2Gr-3">
          <mxGeometry relative="1" as="geometry" />
        </mxCell>
        <mxCell id="zsGPps4aZ2DuJzVvf2Gr-1" value="podaj a&lt;br&gt;podaj b&lt;br&gt;i=0" style="rounded=0;whiteSpace=wrap;html=1;" vertex="1" parent="WIyWlLk6GJQsqaUBKTNV-1">
          <mxGeometry x="354" y="190" width="120" height="60" as="geometry" />
        </mxCell>
        <mxCell id="zsGPps4aZ2DuJzVvf2Gr-17" style="edgeStyle=orthogonalEdgeStyle;rounded=0;orthogonalLoop=1;jettySize=auto;html=1;entryX=0;entryY=0.5;entryDx=0;entryDy=0;" edge="1" parent="WIyWlLk6GJQsqaUBKTNV-1" source="zsGPps4aZ2DuJzVvf2Gr-3" target="zsGPps4aZ2DuJzVvf2Gr-16">
          <mxGeometry relative="1" as="geometry" />
        </mxCell>
        <mxCell id="zsGPps4aZ2DuJzVvf2Gr-3" value="a+b=c" style="rounded=0;whiteSpace=wrap;html=1;" vertex="1" parent="WIyWlLk6GJQsqaUBKTNV-1">
          <mxGeometry x="354" y="310" width="120" height="60" as="geometry" />
        </mxCell>
        <mxCell id="zsGPps4aZ2DuJzVvf2Gr-23" style="edgeStyle=orthogonalEdgeStyle;rounded=0;orthogonalLoop=1;jettySize=auto;html=1;entryX=0.5;entryY=1;entryDx=0;entryDy=0;" edge="1" parent="WIyWlLk6GJQsqaUBKTNV-1" source="zsGPps4aZ2DuJzVvf2Gr-7" target="zsGPps4aZ2DuJzVvf2Gr-24">
          <mxGeometry relative="1" as="geometry">
            <mxPoint x="290" y="440" as="targetPoint" />
          </mxGeometry>
        </mxCell>
        <mxCell id="zsGPps4aZ2DuJzVvf2Gr-7" value="a+c=b" style="rounded=0;whiteSpace=wrap;html=1;" vertex="1" parent="WIyWlLk6GJQsqaUBKTNV-1">
          <mxGeometry x="90" y="620" width="120" height="60" as="geometry" />
        </mxCell>
        <mxCell id="zsGPps4aZ2DuJzVvf2Gr-19" style="edgeStyle=orthogonalEdgeStyle;rounded=0;orthogonalLoop=1;jettySize=auto;html=1;entryX=0.5;entryY=0;entryDx=0;entryDy=0;" edge="1" parent="WIyWlLk6GJQsqaUBKTNV-1" source="zsGPps4aZ2DuJzVvf2Gr-16" target="zsGPps4aZ2DuJzVvf2Gr-18">
          <mxGeometry relative="1" as="geometry" />
        </mxCell>
        <mxCell id="zsGPps4aZ2DuJzVvf2Gr-16" value="wyswietl c" style="rounded=0;whiteSpace=wrap;html=1;" vertex="1" parent="WIyWlLk6GJQsqaUBKTNV-1">
          <mxGeometry x="660" y="310" width="120" height="60" as="geometry" />
        </mxCell>
        <mxCell id="zsGPps4aZ2DuJzVvf2Gr-26" style="edgeStyle=orthogonalEdgeStyle;rounded=0;orthogonalLoop=1;jettySize=auto;html=1;entryX=1;entryY=0.5;entryDx=0;entryDy=0;" edge="1" parent="WIyWlLk6GJQsqaUBKTNV-1" source="zsGPps4aZ2DuJzVvf2Gr-18" target="zsGPps4aZ2DuJzVvf2Gr-21">
          <mxGeometry relative="1" as="geometry" />
        </mxCell>
        <mxCell id="zsGPps4aZ2DuJzVvf2Gr-18" value="b+c=a" style="rounded=0;whiteSpace=wrap;html=1;" vertex="1" parent="WIyWlLk6GJQsqaUBKTNV-1">
          <mxGeometry x="660" y="620" width="120" height="60" as="geometry" />
        </mxCell>
        <mxCell id="zsGPps4aZ2DuJzVvf2Gr-27" style="edgeStyle=orthogonalEdgeStyle;rounded=0;orthogonalLoop=1;jettySize=auto;html=1;entryX=1;entryY=0.5;entryDx=0;entryDy=0;" edge="1" parent="WIyWlLk6GJQsqaUBKTNV-1" source="zsGPps4aZ2DuJzVvf2Gr-21" target="zsGPps4aZ2DuJzVvf2Gr-7">
          <mxGeometry relative="1" as="geometry" />
        </mxCell>
        <mxCell id="zsGPps4aZ2DuJzVvf2Gr-21" value="wyswietl a" style="rounded=0;whiteSpace=wrap;html=1;" vertex="1" parent="WIyWlLk6GJQsqaUBKTNV-1">
          <mxGeometry x="360" y="620" width="120" height="60" as="geometry" />
        </mxCell>
        <mxCell id="zsGPps4aZ2DuJzVvf2Gr-49" style="edgeStyle=orthogonalEdgeStyle;rounded=0;orthogonalLoop=1;jettySize=auto;html=1;entryX=0.5;entryY=1;entryDx=0;entryDy=0;" edge="1" parent="WIyWlLk6GJQsqaUBKTNV-1" source="zsGPps4aZ2DuJzVvf2Gr-24" target="zsGPps4aZ2DuJzVvf2Gr-48">
          <mxGeometry relative="1" as="geometry">
            <mxPoint x="150" y="380" as="targetPoint" />
          </mxGeometry>
        </mxCell>
        <mxCell id="zsGPps4aZ2DuJzVvf2Gr-24" value="wyswietl b" style="rounded=0;whiteSpace=wrap;html=1;" vertex="1" parent="WIyWlLk6GJQsqaUBKTNV-1">
          <mxGeometry x="90" y="440" width="120" height="60" as="geometry" />
        </mxCell>
        <mxCell id="zsGPps4aZ2DuJzVvf2Gr-48" value="i+1" style="rounded=0;whiteSpace=wrap;html=1;" vertex="1" parent="WIyWlLk6GJQsqaUBKTNV-1">
          <mxGeometry x="90" y="310" width="120" height="60" as="geometry" />
        </mxCell>
        <mxCell id="zsGPps4aZ2DuJzVvf2Gr-51" style="edgeStyle=orthogonalEdgeStyle;rounded=0;orthogonalLoop=1;jettySize=auto;html=1;entryX=0.5;entryY=0;entryDx=0;entryDy=0;" edge="1" parent="WIyWlLk6GJQsqaUBKTNV-1" source="zsGPps4aZ2DuJzVvf2Gr-50" target="zsGPps4aZ2DuJzVvf2Gr-48">
          <mxGeometry relative="1" as="geometry" />
        </mxCell>
        <mxCell id="zsGPps4aZ2DuJzVvf2Gr-52" style="edgeStyle=orthogonalEdgeStyle;rounded=0;orthogonalLoop=1;jettySize=auto;html=1;entryX=0;entryY=0.25;entryDx=0;entryDy=0;" edge="1" parent="WIyWlLk6GJQsqaUBKTNV-1" source="zsGPps4aZ2DuJzVvf2Gr-50" target="zsGPps4aZ2DuJzVvf2Gr-3">
          <mxGeometry relative="1" as="geometry" />
        </mxCell>
        <mxCell id="zsGPps4aZ2DuJzVvf2Gr-55" style="edgeStyle=orthogonalEdgeStyle;rounded=0;orthogonalLoop=1;jettySize=auto;html=1;" edge="1" parent="WIyWlLk6GJQsqaUBKTNV-1" source="zsGPps4aZ2DuJzVvf2Gr-50">
          <mxGeometry relative="1" as="geometry">
            <mxPoint x="80" y="130" as="targetPoint" />
          </mxGeometry>
        </mxCell>
        <mxCell id="zsGPps4aZ2DuJzVvf2Gr-50" value="i=17" style="rhombus;whiteSpace=wrap;html=1;" vertex="1" parent="WIyWlLk6GJQsqaUBKTNV-1">
          <mxGeometry x="110" y="160" width="80" height="80" as="geometry" />
        </mxCell>
        <mxCell id="zsGPps4aZ2DuJzVvf2Gr-53" value="nie" style="text;html=1;align=center;verticalAlign=middle;resizable=0;points=[];autosize=1;strokeColor=none;fillColor=none;" vertex="1" parent="WIyWlLk6GJQsqaUBKTNV-1">
          <mxGeometry x="220" y="170" width="40" height="30" as="geometry" />
        </mxCell>
        <mxCell id="zsGPps4aZ2DuJzVvf2Gr-54" value="STOP" style="ellipse;whiteSpace=wrap;html=1;" vertex="1" parent="WIyWlLk6GJQsqaUBKTNV-1">
          <mxGeometry x="30" y="40" width="120" height="80" as="geometry" />
        </mxCell>
        <mxCell id="zsGPps4aZ2DuJzVvf2Gr-56" value="tak" style="text;html=1;align=center;verticalAlign=middle;resizable=0;points=[];autosize=1;strokeColor=none;fillColor=none;" vertex="1" parent="WIyWlLk6GJQsqaUBKTNV-1">
          <mxGeometry x="80" y="155" width="40" height="30" as="geometry" />
        </mxCell>
      </root>
    </mxGraphModel>
  </diagram>
</mxfile>
